<?xml version="1.0" encoding="UTF-8" standalone="no"?>
<svg
   viewBox="0 0 28 33.5"
   width="56"
   height="67"
   version="1.1"
   id="svg13"
   xml:space="preserve"
   xmlns:xlink="http://www.w3.org/1999/xlink"
   xmlns="http://www.w3.org/2000/svg"
   xmlns:svg="http://www.w3.org/2000/svg"><defs
     id="defs11"><path
       id="A"
       d="m 4.383,10.412 c 1.028,0 1.85,0.925 1.85,2.056 v 7.813 c 0,1.13 -0.822,2.056 -1.85,2.056 -1.028,0 -1.85,-0.925 -1.85,-2.056 v -7.813 c 0,-1.13 0.822,-2.056 1.85,-2.056 z" /><clipPath
       clipPathUnits="userSpaceOnUse"
       id="clipPath8"><path
         style="display:none;opacity:1;fill:#ffffff;stroke:#ffffff;stroke-width:0.5;stroke-dasharray:none;stroke-opacity:1"
         d="m 7.4298644,19.381339 -1.4140273,2.856335 -0.8766968,3.817873 0.028281,3.619909 1.1029412,1.611991 1.6402714,0.254525 2.0927601,-1.442307 1.894796,-2.06448 h 3.0543 l 5.31674,-0.02828 3.054299,3.139141 1.58371,0.53733 1.498869,-1.074661 0.424208,-1.809954 -0.08484,-2.658371 -0.282805,-2.60181 -1.216063,-3.506788 -1.979639,-1.923077 -1.725113,-0.933258 -2.06448,0.282806 -1.102941,1.046379 -2.205881,0.08484 -2.375566,-0.08484 -1.414027,-1.07466 -1.611991,-0.282805 -1.6119911,0.565611 -0.7635745,0.876697 z"
         id="path8" /><path
         id="lpe_path-effect8"
         style="opacity:1;fill:#ffffff;stroke:#ffffff;stroke-width:0.5;stroke-dasharray:none;stroke-opacity:1"
         class="powerclip"
         d="M -2.592,-5.1249914 H 34.591999 V 37.126 H -2.592 Z m 10.0218644,24.5063304 -1.4140273,2.856335 -0.8766968,3.817873 0.028281,3.619909 1.1029412,1.611991 1.6402714,0.254525 2.0927601,-1.442307 1.894796,-2.06448 h 3.0543 l 5.31674,-0.02828 3.054299,3.139141 1.58371,0.53733 1.498869,-1.074661 0.424208,-1.809954 -0.08484,-2.658371 -0.282805,-2.60181 -1.216063,-3.506788 -1.979639,-1.923077 -1.725113,-0.933258 -2.06448,0.282806 -1.102941,1.046379 -2.205881,0.08484 -2.375566,-0.08484 -1.414027,-1.07466 -1.611991,-0.282805 -1.6119911,0.565611 -0.7635745,0.876697 z" /></clipPath></defs><g
     fill="#a4c639"
     id="g8"
     style="fill:none;stroke:#ffffff;stroke-width:0.25;stroke-dasharray:none;stroke-opacity:1"
     transform="translate(-1.9151584,0.72612685)"
     clip-path="url(#clipPath8)"><path
       d="m 10.45,0.234 1.44,2.57 C 9.215,4.14 7.365,6.7 7.365,9.692 h 17.27 c 0,-2.98 -1.85,-5.55 -4.523,-6.888 l 1.44,-2.57 c 0,0 0.103,-0.103 -0.103,-0.206 -0.103,-0.103 -0.206,0.103 -0.206,0.103 L 19.7,2.702 A 9.35,9.35 0 0 0 15.896,1.88 9.35,9.35 0 0 0 12.092,2.702 l -1.54,-2.57 c 0,0 -0.102,-0.102 -0.206,-0.102 a 0.36,0.36 0 0 0 0.103,0.206 z M 11.9,5.27 c 0.4,0 0.822,0.4 0.822,0.822 0,0.422 -0.4,0.822 -0.822,0.822 A 0.81,0.81 0 0 1 11.078,6.092 0.81,0.81 0 0 1 11.9,5.27 Z m 8.224,0 c 0.4,0 0.822,0.4 0.822,0.822 0,0.422 -0.4,0.822 -0.822,0.822 A 0.81,0.81 0 0 1 19.302,6.092 0.81,0.81 0 0 1 20.124,5.27 Z M 7.262,10.72 v 13.16 c 0,0.617 0.822,1.542 1.44,1.542 h 2.056 v 4.523 c 0,1.13 0.822,2.056 1.85,2.056 1.028,0 1.85,-0.925 1.85,-2.056 V 25.42 h 2.98 v 4.523 c 0,1.13 0.822,2.056 1.85,2.056 1.028,0 1.85,-0.925 1.85,-2.056 V 25.42 h 2.056 c 0.617,0 1.44,-0.822 1.44,-1.542 V 10.72 Z"
       id="path2"
       style="fill:none;stroke:#ffffff;stroke-width:0.25;stroke-dasharray:none;stroke-opacity:1" /><use
       xlink:href="#A"
       id="use4"
       style="fill:none;stroke:#ffffff;stroke-width:0.25;stroke-dasharray:none;stroke-opacity:1" /><use
       xlink:href="#A"
       x="23.233999"
       id="use6"
       style="fill:none;stroke:#ffffff;stroke-width:0.25;stroke-dasharray:none;stroke-opacity:1" /></g><g
     style="clip-rule:evenodd;display:inline;opacity:1;fill:#ffffff;fill-rule:evenodd;image-rendering:optimizeQuality;shape-rendering:geometricPrecision;text-rendering:geometricPrecision"
     id="g1"
     transform="matrix(0.04390487,0,0,0.04390487,2.8452745,14.817749)"><path
       fill-rule="nonzero"
       d="m 432.34,92.96 c 1.68,0.19 3.43,0.55 5.14,1.14 2.6,0.91 5.02,2.36 6.91,4.57 22.58,23.37 40.01,59.27 51.5,98.08 12.75,43.08 18.25,89.95 15.35,127.18 -1.09,14.01 -3.85,32.15 -10.53,47.69 -7.12,16.55 -18.62,30.2 -37.13,33.61 -16.48,3.04 -36,-5.85 -54.73,-19.48 -24.77,-18.04 -48.65,-44.62 -61.23,-61.62 H 164.38 C 151.85,341.11 127.97,367.66 103.2,385.7 84.45,399.35 64.88,408.27 48.41,405.23 29.91,401.82 18.39,388.17 11.28,371.62 4.6,356.08 1.84,337.94 0.75,323.93 -2.15,286.49 3.42,239.33 16.31,196.08 27.94,157.03 45.6,120.97 68.48,97.76 c 1.18,-1.21 4.21,-2.53 7.15,-3.44 1.24,-0.38 2.56,-0.74 3.78,-1.02 A 76.93,76.93 0 0 1 95.25,78.09 c 14.11,-10.11 31.22,-15.2 48.3,-15.21 17.08,0 34.16,5.08 48.22,15.29 a 75.866,75.866 0 0 1 15.09,14.52 l 25.53,0.03 c -0.48,-25.9 2.77,-45.01 8.78,-58.35 7.55,-16.76 19.39,-24.66 33.69,-25.63 9.75,-0.65 19.7,1.08 29.3,2.68 18.1,3 38.13,6.3 51.79,-7.36 12.43,-12.32 31.16,6.16 19.14,18.7 l -0.2,0.22 c -11.73,11.7 -24.54,16.41 -37.54,17.67 -12.69,1.22 -25.39,-0.87 -37.44,-2.86 l -0.1,-0.02 c -7.26,-1.21 -15.88,-2.84 -23.2,-2.36 -5.61,0.37 -10.39,5.56 -13.58,16.11 -2.88,9.56 -4.36,23.19 -3.92,41.22 l 46.14,0.04 c 4.51,-5.7 9.7,-10.59 15.36,-14.65 14.11,-10.13 31.17,-15.21 48.18,-15.21 17.02,0.02 34.08,5.08 48.14,15.23 5.7,4.11 10.9,9.05 15.41,14.81 z M 90.48,219.13 81.12,209.76 a 3.06,3.06 0 0 1 0.01,-4.32 l 9.2,-9.2 a 3.05,3.05 0 0 1 2.32,-1.06 3.06,3.06 0 0 1 3.06,3.06 v 18.72 c 0,0.79 -0.3,1.57 -0.9,2.17 a 3.072,3.072 0 0 1 -4.33,0 z m 113.31,-9.37 -9.36,9.37 a 3.072,3.072 0 0 1 -4.33,0 c -0.6,-0.6 -0.89,-1.38 -0.89,-2.17 l -0.01,-18.72 c 0,-1.69 1.38,-3.06 3.07,-3.06 0.92,0 1.75,0.41 2.31,1.06 l 9.2,9.2 a 3.06,3.06 0 0 1 0.01,4.32 z m -49.8,50.82 -9.36,9.37 c -1.2,1.2 -3.14,1.2 -4.33,0 l -9.36,-9.36 c -0.56,-0.55 -0.9,-1.32 -0.9,-2.16 a 3.06,3.06 0 0 1 3.06,-3.06 h 18.72 c 0.78,0 1.56,0.3 2.15,0.89 1.2,1.19 1.21,3.13 0.02,4.32 z m -9.21,-115.16 9.21,9.2 a 3.051,3.051 0 0 1 -0.02,4.32 c -0.59,0.59 -1.37,0.89 -2.15,0.89 H 133.1 a 3.06,3.06 0 0 1 -3.06,-3.06 c 0,-0.84 0.34,-1.61 0.9,-2.16 l 9.36,-9.36 a 3.072,3.072 0 0 1 4.33,0 z m 28.98,5.89 v 25.81 h 25.81 c 14.14,0 23.2,8.24 27.16,18.78 1.49,3.98 2.25,8.27 2.25,12.52 0,4.26 -0.76,8.55 -2.25,12.53 -3.97,10.54 -13.02,18.78 -27.16,18.78 h -25.81 v 22.38 c 0,14.73 -8.99,24.46 -20.16,28.74 l -0.4,0.13 c -3.9,1.44 -8.06,2.22 -12.17,2.29 -4.28,0.07 -8.55,-0.6 -12.45,-2.05 -9.91,-3.69 -17.43,-12.14 -17.43,-25.67 V 239.73 H 85.33 c -14.13,0 -23.19,-8.23 -27.15,-18.78 -1.49,-3.98 -2.24,-8.27 -2.24,-12.53 0,-4.25 0.75,-8.54 2.24,-12.52 3.96,-10.54 13.02,-18.78 27.15,-18.78 h 25.82 v -25.81 c 0,-14.14 8.24,-23.19 18.77,-27.15 3.98,-1.5 8.28,-2.25 12.53,-2.25 4.26,0 8.55,0.75 12.53,2.25 10.54,3.96 18.78,13.02 18.78,27.15 z m -9.64,30.63 v -30.63 c 0,-9.45 -5.5,-15.5 -12.53,-18.15 -2.84,-1.06 -5.98,-1.6 -9.14,-1.6 -3.16,0 -6.29,0.54 -9.14,1.6 -7.02,2.64 -12.52,8.69 -12.52,18.15 v 30.63 c 0,2.66 -2.16,4.82 -4.82,4.82 H 85.33 c -9.45,0 -15.5,5.5 -18.14,12.53 -1.07,2.84 -1.61,5.98 -1.61,9.13 0,3.16 0.54,6.3 1.61,9.15 2.64,7.02 8.69,12.52 18.14,12.52 h 30.64 c 2.66,0 4.82,2.16 4.82,4.82 v 30.64 c 0,8.83 4.81,14.31 11.15,16.66 2.76,1.03 5.83,1.51 8.94,1.45 3.02,-0.05 6.08,-0.61 8.94,-1.66 l 0.36,-0.16 c 7.72,-2.95 13.94,-9.64 13.94,-19.73 v -27.2 c 0,-2.66 2.16,-4.82 4.82,-4.82 h 30.63 c 9.46,0 15.51,-5.49 18.15,-12.52 1.07,-2.85 1.61,-5.99 1.61,-9.15 0,-3.15 -0.54,-6.29 -1.61,-9.13 -2.64,-7.03 -8.69,-12.53 -18.15,-12.53 h -30.63 c -2.66,0 -4.82,-2.16 -4.82,-4.82 z m 216.76,56.83 c 5.2,5.2 7.81,12.01 7.81,18.82 0,6.8 -2.61,13.62 -7.81,18.82 -5.2,5.2 -12.01,7.8 -18.81,7.8 -6.81,0 -13.62,-2.6 -18.82,-7.8 a 26.56,26.56 0 0 1 -7.81,-18.82 c 0,-6.81 2.61,-13.62 7.81,-18.82 5.18,-5.18 11.99,-7.77 18.8,-7.77 6.79,0 13.61,2.59 18.83,7.77 z m -1.83,18.82 c 0,-4.33 -1.67,-8.68 -4.99,-12 -3.3,-3.3 -7.66,-4.95 -12.01,-4.95 -4.34,0 -8.69,1.65 -11.98,4.95 a 16.945,16.945 0 0 0 -4.99,12 c 0,4.33 1.67,8.68 4.99,12 a 16.9,16.9 0 0 0 12,4.98 c 4.33,0 8.68,-1.66 11.99,-4.98 3.32,-3.32 4.99,-7.67 4.99,-12 z m 1.83,-118.83 c 5.2,5.21 7.81,12.02 7.81,18.82 0,6.81 -2.61,13.62 -7.81,18.82 l -0.29,0.27 a 26.509,26.509 0 0 1 -18.52,7.54 c -6.8,0 -13.6,-2.61 -18.8,-7.81 a 26.48,26.48 0 0 1 -7.83,-18.82 c 0,-6.8 2.61,-13.61 7.81,-18.82 5.18,-5.18 11.99,-7.77 18.8,-7.77 6.79,0 13.61,2.59 18.83,7.77 z m -1.83,18.82 c 0,-4.33 -1.67,-8.68 -4.99,-12 -3.3,-3.3 -7.66,-4.94 -12.01,-4.94 -4.34,0 -8.69,1.65 -11.98,4.94 a 16.945,16.945 0 0 0 -4.99,12 c 0,4.34 1.67,8.68 4.99,12 3.3,3.32 7.65,4.98 12,4.98 4.24,0 8.5,-1.59 11.79,-4.76 l 0.2,-0.22 c 3.32,-3.32 4.99,-7.66 4.99,-12 z m 54.41,31.5 c 5.02,5.17 7.54,11.85 7.54,18.52 0,6.8 -2.61,13.62 -7.81,18.82 -5.2,5.2 -12.01,7.81 -18.81,7.81 -6.81,0 -13.62,-2.61 -18.82,-7.81 l -0.28,-0.3 a 26.48,26.48 0 0 1 -7.53,-18.52 c 0,-6.8 2.61,-13.59 7.8,-18.79 a 26.489,26.489 0 0 1 18.83,-7.84 c 6.8,0 13.61,2.61 18.81,7.81 z m -2.1,18.52 c 0,-4.25 -1.59,-8.51 -4.76,-11.78 l -0.23,-0.22 a 16.894,16.894 0 0 0 -11.99,-4.98 16.9,16.9 0 0 0 -12,4.98 16.869,16.869 0 0 0 -4.99,12 c 0,4.24 1.59,8.5 4.76,11.78 l 0.22,0.21 c 3.32,3.33 7.67,4.99 12.01,4.99 4.33,0 8.68,-1.66 11.99,-4.98 3.32,-3.32 4.99,-7.67 4.99,-12 z M 328.57,188.78 c 5.2,5.21 7.81,12.01 7.81,18.82 0,6.79 -2.61,13.59 -7.81,18.79 a 26.45,26.45 0 0 1 -18.82,7.84 c -6.8,0 -13.61,-2.61 -18.81,-7.81 l -0.28,-0.3 a 26.48,26.48 0 0 1 -7.53,-18.52 c 0,-6.8 2.61,-13.59 7.8,-18.79 l 0.36,-0.35 a 26.53,26.53 0 0 1 18.48,-7.49 c 6.78,0 13.56,2.6 18.73,7.76 z m -6.82,6.83 -0.05,-0.06 c -3.28,-3.28 -7.6,-4.93 -11.93,-4.93 -4.24,0 -8.48,1.58 -11.76,4.72 l -0.25,0.26 a 16.869,16.869 0 0 0 -4.99,12 c 0,4.24 1.59,8.5 4.76,11.78 l 0.22,0.21 c 3.32,3.33 7.67,4.99 12,4.99 4.34,0 8.68,-1.66 12,-4.98 a 16.91,16.91 0 0 0 0,-23.99 z m 107.26,-89.97 h -3.26 l -1.93,-2.69 c -4.1,-5.7 -8.98,-10.51 -14.38,-14.4 -11.83,-8.54 -26.23,-12.8 -40.65,-12.8 -14.46,0.03 -28.88,4.29 -40.7,12.77 a 63.489,63.489 0 0 0 -14.47,14.43 l -1.94,2.69 -111.32,-0.08 -1.93,-2.69 A 62.958,62.958 0 0 0 184.24,88.57 C 172.4,79.97 157.99,75.69 143.55,75.69 129.12,75.7 114.65,80 102.73,88.54 a 64.285,64.285 0 0 0 -14.51,14.39 l -1.94,2.67 h -3.26 c -0.29,0 -1.92,0.46 -3.62,0.97 -1.25,0.39 -1.42,-0.19 -1.78,0.18 -21.29,21.61 -37.91,55.76 -49.01,93 -12.44,41.78 -17.84,87.25 -15.05,123.22 1.01,12.93 3.51,29.6 9.53,43.58 5.57,12.97 14.23,23.61 27.63,26.08 12.5,2.3 28.77,-5.5 44.95,-17.28 24.87,-18.11 48.87,-45.35 60.23,-61.36 l 1.93,-2.72 h 196.34 l 1.93,2.72 c 11.41,16.03 35.41,43.3 60.29,61.41 16.14,11.75 32.38,19.53 44.88,17.23 13.4,-2.47 22.05,-13.11 27.63,-26.08 6.02,-13.99 8.53,-30.65 9.53,-43.58 2.79,-35.8 -2.53,-80.99 -14.85,-122.61 -10.98,-37.1 -27.47,-71.21 -48.62,-92.98 l -0.33,-0.36 c -1.01,-1.19 -4.19,-1.38 -5.62,-1.38 z"
       id="path1"
       style="fill:#ffffff" /></g></svg>
